<svg width="311" height="119" xmlns="http://www.w3.org/2000/svg">
  <defs>
    <linearGradient x1="24.783%" y1="23.626%" y2="106.267%" id="a">
      <stop stop-color="#7AA6DA" offset="0%"/>
      <stop stop-color="#C397D8" offset="100%"/>
    </linearGradient>
    <linearGradient x1="24.783%" y1="16.64%" y2="121.17%" id="b">
      <stop stop-color="#B9CA4A" offset="0%"/>
      <stop stop-color="#E78C45" offset="100%"/>
    </linearGradient>
  </defs>
  <g fill="none" fill-rule="evenodd">
    <path d="M95.83 109.248L6.437 86.943 73.427 8.69l22.402 100.56zM75.696 5.114l-.652-2.928-1.951 2.28L2.568 86.85.99 88.694l2.355.588 94.118 23.466 2.355.587-.528-2.369L75.697 5.114z" fill="url(#a)" transform="rotate(21 77.32 73.767)"/>
    <path d="M108.59 99.5c0 .006-92.16-.007-92.16-.007l46.085-92.17S108.59 99.494 108.59 99.5zM63.842 3.33L62.5.645l-1.342 2.683-48.5 97-1.085 2.171H113.427l-1.085-2.17-48.5-97z" fill="url(#b)" transform="rotate(21 77.32 73.767)"/>
  </g>
</svg>