<?xml version="1.0" encoding="UTF-8" standalone="no"?>
<svg width="100px" height="100px" viewBox="0 0 100 100" version="1.1" xmlns="http://www.w3.org/2000/svg" xmlns:xlink="http://www.w3.org/1999/xlink">
    <defs></defs>
    <g stroke="none" stroke-width="1" fill="none" fill-rule="evenodd">
        <path d="M0,0 L100,0 L0,100 L0,0 Z" fill="#007ACD" transform="translate(50.000000, 50.000000) rotate(-90.000000) translate(-50.000000, -50.000000) "></path>
        <path d="M17.5449219,82 L17.5449219,58.7441406 L8.31640625,58.7441406 L8.31640625,55.984375 L30.4648438,55.984375 L30.4648438,58.7441406 L21.2363281,58.7441406 L21.2363281,82 L17.5449219,82 Z" fill="#FFFFFF"></path>
        <path d="M35.4550781,90.6503906 C33.7089756,90.6503906 31.4765761,90.2695351 28.7578125,89.5078125 L28.7578125,85.8515625 C31.6875146,87.2109443 34.0956937,87.890625 35.9824219,87.890625 C37.4355541,87.890625 38.6044878,87.5097694 39.4892578,86.7480469 C40.3740279,85.9863243 40.8164062,84.9843812 40.8164062,83.7421875 C40.8164062,82.7226512 40.5263701,81.8554723 39.9462891,81.140625 C39.366208,80.4257777 38.2968828,79.6289106 36.7382812,78.75 L34.9453125,77.7128906 C32.7304577,76.4472593 31.1689499,75.2548884 30.2607422,74.1357422 C29.3525345,73.016596 28.8984375,71.7128981 28.8984375,70.2246094 C28.8984375,68.2206931 29.6249927,66.5712955 31.078125,65.2763672 C32.5312573,63.9814388 34.3828012,63.3339844 36.6328125,63.3339844 C38.6367288,63.3339844 40.751942,63.6679654 42.9785156,64.3359375 L42.9785156,67.7109375 C40.2363144,66.6328071 38.191413,66.09375 36.84375,66.09375 C35.5663999,66.09375 34.5117229,66.4335904 33.6796875,67.1132812 C32.8476521,67.7929721 32.4316406,68.6484323 32.4316406,69.6796875 C32.4316406,70.5468793 32.7363251,71.3144498 33.3457031,71.9824219 C33.9550812,72.650394 35.0683513,73.447261 36.6855469,74.3730469 L38.5488281,75.4277344 C40.7988394,76.7050845 42.3691362,77.9121037 43.2597656,79.0488281 C44.1503951,80.1855526 44.5957031,81.5507733 44.5957031,83.1445312 C44.5957031,85.4062613 43.7607505,87.2226494 42.0908203,88.59375 C40.4208901,89.9648506 38.2089981,90.6503906 35.4550781,90.6503906 L35.4550781,90.6503906 Z" fill="#FFFFFF"></path>
    </g>
</svg>