<?xml version="1.0" encoding="UTF-8" standalone="no"?>
<svg width="100px" height="100px" viewBox="0 0 100 100" version="1.1" xmlns="http://www.w3.org/2000/svg" xmlns:xlink="http://www.w3.org/1999/xlink">
    <defs></defs>
    <g stroke="none" stroke-width="1" fill="none" fill-rule="evenodd">
        <path d="M0,0 L100,0 L0,100 L0,0 Z" fill="#F0DB4F" transform="translate(50.000000, 50.000000) rotate(-90.000000) translate(-50.000000, -50.000000) "></path>
        <path d="M23.188,82.552 C23.188,83.6160053 23.0170017,84.6419951 22.675,85.63 C22.3329983,86.6180049 21.8263367,87.4856629 21.155,88.233 C20.4836633,88.9803371 19.6413384,89.5756645 18.628,90.019 C17.6146616,90.4623356 16.4366734,90.684 15.094,90.684 C12.9659894,90.684 11.2243401,90.1900049 9.869,89.202 C8.51365989,88.2139951 7.62066882,86.6433441 7.19,84.49 L11.674,83.426 C11.8260008,84.3126711 12.1869971,85.0219973 12.757,85.554 C13.3270028,86.0860027 14.0299958,86.352 14.866,86.352 C16.2340068,86.352 17.1649975,85.8896713 17.659,84.965 C18.1530025,84.0403287 18.4,82.7673414 18.4,81.146 L18.4,63.096 L23.188,63.096 L23.188,82.552 Z M42.188,68.872 C41.6813308,68.1373297 41.0036709,67.5990017 40.155,67.257 C39.3063291,66.9149983 38.413338,66.744 37.476,66.744 C36.9186639,66.744 36.3803359,66.8073327 35.861,66.934 C35.3416641,67.0606673 34.8730021,67.2633319 34.455,67.542 C34.0369979,67.8206681 33.7013346,68.1816644 33.448,68.625 C33.1946654,69.0683356 33.068,69.593997 33.068,70.202 C33.068,71.1140046 33.3846635,71.8106643 34.018,72.292 C34.6513365,72.7733357 35.436662,73.1913316 36.374,73.546 C37.311338,73.9006684 38.3373278,74.242665 39.452,74.572 C40.5666722,74.901335 41.592662,75.3573304 42.53,75.94 C43.467338,76.5226696 44.2526635,77.2953285 44.886,78.258 C45.5193365,79.2206715 45.836,80.499992 45.836,82.096 C45.836,83.5400072 45.5700027,84.8003279 45.038,85.877 C44.5059973,86.953672 43.7903378,87.8466631 42.891,88.556 C41.9916622,89.2653369 40.9466726,89.7973316 39.756,90.152 C38.5653274,90.5066684 37.3113399,90.684 35.994,90.684 C34.3219916,90.684 32.7133411,90.4053361 31.168,89.848 C29.6226589,89.2906639 28.2926722,88.3533399 27.178,87.036 L30.788,83.54 C31.3706696,84.4266711 32.1369952,85.1169975 33.087,85.611 C34.0370047,86.1050025 35.0439947,86.352 36.108,86.352 C36.6653361,86.352 37.2226639,86.2760008 37.78,86.124 C38.3373361,85.9719992 38.8439977,85.7440015 39.3,85.44 C39.7560023,85.1359985 40.1233319,84.749669 40.402,84.281 C40.6806681,83.812331 40.82,83.274003 40.82,82.666 C40.82,81.6779951 40.5033365,80.9180027 39.87,80.386 C39.2366635,79.8539973 38.451338,79.4043352 37.514,79.037 C36.576662,78.6696648 35.5506722,78.321335 34.436,77.992 C33.3213278,77.662665 32.295338,77.2130029 31.358,76.643 C30.420662,76.0729971 29.6353365,75.3130048 29.002,74.363 C28.3686635,73.4129952 28.052,72.140008 28.052,70.544 C28.052,69.1506597 28.3369972,67.9473384 28.907,66.934 C29.4770028,65.9206616 30.2243287,65.0783367 31.149,64.407 C32.0736713,63.7356633 33.1313274,63.235335 34.322,62.906 C35.5126726,62.576665 36.7286605,62.412 37.97,62.412 C39.3886738,62.412 40.7629933,62.6273312 42.093,63.058 C43.4230066,63.4886688 44.6199947,64.1979951 45.684,65.186 L42.188,68.872 Z" fill="#1A1A1A"></path>
    </g>
</svg>